<svg width="32" height="32" viewBox="0 0 32 32" fill="none" xmlns="http://www.w3.org/2000/svg">
<rect x="0.5" y="0.5" width="31" height="31" rx="7.5" fill="white" stroke="black"/>
<path d="M17.5426 16.0783L17.4543 16.1667L17.5426 16.2551L19.9915 18.7039C20.2025 18.9149 20.2739 19.148 20.2575 19.366C20.2408 19.5874 20.1324 19.8024 19.9674 19.9674C19.8024 20.1324 19.5874 20.2408 19.366 20.2575C19.148 20.274 18.9149 20.2025 18.7039 19.9915L16.2551 17.5427L16.1667 17.4543L16.0783 17.5427L13.6296 19.9914C13.4185 20.2024 13.1854 20.2739 12.9674 20.2575C12.746 20.2408 12.5309 20.1324 12.3659 19.9674C12.2009 19.8024 12.0926 19.5873 12.0759 19.3659C12.0594 19.1479 12.1309 18.9148 12.3419 18.7038L14.7906 16.255L14.879 16.1667L14.7906 16.0783L12.3418 13.6295C12.1309 13.4185 12.0594 13.1854 12.0759 12.9674C12.0926 12.746 12.201 12.531 12.366 12.366C12.531 12.201 12.746 12.0926 12.9674 12.0759C13.1854 12.0595 13.4185 12.1309 13.6294 12.3419L16.0782 14.7907L16.1666 14.8791L16.255 14.7907L18.7037 12.342C18.9147 12.1309 19.1479 12.0594 19.3659 12.0759C19.5873 12.0926 19.8023 12.201 19.9673 12.366C20.1323 12.531 20.2407 12.746 20.2574 12.9674C20.2739 13.1854 20.2024 13.4186 19.9914 13.6296L17.5426 16.0783Z" fill="black" stroke="black" stroke-width="0.25"/>
</svg>
