<svg width="10" height="10" viewBox="0 0 10 10" fill="none" xmlns="http://www.w3.org/2000/svg">
<path d="M6.54265 5.07832L6.45426 5.1667L6.54265 5.25509L8.99145 7.7039C9.20246 7.9149 9.27392 8.14802 9.25748 8.366C9.24077 8.5874 9.13238 8.80243 8.96739 8.96742C8.80239 9.13242 8.58736 9.24081 8.36596 9.25751C8.14799 9.27396 7.91486 9.20249 7.70386 8.99149L5.25505 6.54269L5.16667 6.4543L5.07828 6.54269L2.62956 8.9914C2.41853 9.20243 2.18539 9.27391 1.9674 9.25747C1.74598 9.24077 1.53094 9.13238 1.36594 8.96738C1.20094 8.80238 1.09255 8.58734 1.07585 8.36592C1.05941 8.14793 1.13089 7.91479 1.34192 7.70376L3.79063 5.25504L3.87902 5.16665L3.79063 5.07826L1.34183 2.62946C1.13086 2.41849 1.05941 2.18539 1.07587 1.96743C1.09259 1.74605 1.20099 1.53102 1.36599 1.36603C1.53099 1.20103 1.74601 1.09263 1.9674 1.07591C2.18536 1.05945 2.41845 1.1309 2.62942 1.34187L5.07823 3.79067L5.16662 3.87906L5.255 3.79067L7.70372 1.34195C7.91475 1.13093 8.1479 1.05945 8.36589 1.07589C8.5873 1.09259 8.80234 1.20098 8.96734 1.36598C9.13234 1.53098 9.24073 1.74602 9.25743 1.96743C9.27387 2.18542 9.20239 2.41857 8.99137 2.6296L6.54265 5.07832Z" fill="black" stroke="black" stroke-width="0.25"/>
</svg>
